<svg width="31" height="31" viewBox="0 0 31 31" fill="none" xmlns="http://www.w3.org/2000/svg">
<path d="M27.8242 15.375H20.3242L17.8242 19.125H12.8242L10.3242 15.375H2.82422" stroke="black" stroke-width="2" stroke-linecap="round" stroke-linejoin="round"/>
<path d="M7.13672 6.7625L2.82422 15.375V22.875C2.82422 23.538 3.08761 24.1739 3.55645 24.6428C4.02529 25.1116 4.66118 25.375 5.32422 25.375H25.3242C25.9873 25.375 26.6231 25.1116 27.092 24.6428C27.5608 24.1739 27.8242 23.538 27.8242 22.875V15.375L23.5117 6.7625C23.3047 6.34598 22.9857 5.99546 22.5904 5.75035C22.1951 5.50524 21.7393 5.37525 21.2742 5.375H9.37422C8.90911 5.37525 8.4533 5.50524 8.05802 5.75035C7.66275 5.99546 7.34369 6.34598 7.13672 6.7625V6.7625Z" stroke="black" stroke-width="2" stroke-linecap="round" stroke-linejoin="round"/>
</svg>
