<svg width="34" height="35" viewBox="0 0 34 35" fill="none" xmlns="http://www.w3.org/2000/svg">
<path d="M29.75 16.614C29.7549 18.4838 29.318 20.3283 28.475 21.9973C27.4754 23.9973 25.9388 25.6795 24.0372 26.8555C22.1356 28.0314 19.9442 28.6548 17.7083 28.6556C15.8385 28.6605 13.994 28.2237 12.325 27.3806L4.25 30.0723L6.94167 21.9973C6.09865 20.3283 5.66179 18.4838 5.66667 16.614C5.66753 14.3781 6.29087 12.1867 7.46685 10.2851C8.64284 8.38349 10.325 6.84686 12.325 5.84731C13.994 5.00429 15.8385 4.56743 17.7083 4.57231H18.4167C21.3695 4.73521 24.1585 5.98155 26.2496 8.07269C28.3408 10.1638 29.5871 12.9528 29.75 15.9056V16.614Z" stroke="black" stroke-opacity="0.6" stroke-width="2.2" stroke-linecap="round" stroke-linejoin="round"/>
</svg>
