<svg width="40" height="40" viewBox="0 0 40 40" fill="none" xmlns="http://www.w3.org/2000/svg">
<path d="M28.3327 35V31.6667C28.3327 29.8986 27.6303 28.2029 26.3801 26.9526C25.1298 25.7024 23.4341 25 21.666 25H8.33268C6.56457 25 4.86888 25.7024 3.61864 26.9526C2.36839 28.2029 1.66602 29.8986 1.66602 31.6667V35" stroke="black" stroke-width="3" stroke-linecap="round" stroke-linejoin="round"/>
<path d="M15.0007 18.3333C18.6826 18.3333 21.6673 15.3486 21.6673 11.6667C21.6673 7.98477 18.6826 5 15.0007 5C11.3188 5 8.33398 7.98477 8.33398 11.6667C8.33398 15.3486 11.3188 18.3333 15.0007 18.3333Z" stroke="black" stroke-width="3" stroke-linecap="round" stroke-linejoin="round"/>
<path d="M38.334 35.0001V31.6668C38.3329 30.1897 37.8412 28.7548 36.9363 27.5873C36.0313 26.4199 34.7642 25.5861 33.334 25.2168" stroke="black" stroke-width="3" stroke-linecap="round" stroke-linejoin="round"/>
<path d="M26.666 5.2168C28.1 5.58397 29.3711 6.41797 30.2787 7.58731C31.1864 8.75666 31.6791 10.1948 31.6791 11.6751C31.6791 13.1554 31.1864 14.5936 30.2787 15.7629C29.3711 16.9323 28.1 17.7663 26.666 18.1335" stroke="black" stroke-width="3" stroke-linecap="round" stroke-linejoin="round"/>
</svg>
