<svg width="50" height="51" viewBox="0 0 50 51" fill="none" xmlns="http://www.w3.org/2000/svg">
<path d="M47.9163 39.9056C47.9163 41.0107 47.4774 42.0705 46.696 42.8519C45.9145 43.6333 44.8547 44.0723 43.7497 44.0723H6.24967C5.14461 44.0723 4.0848 43.6333 3.3034 42.8519C2.52199 42.0705 2.08301 41.0107 2.08301 39.9056V16.9889C2.08301 15.8839 2.52199 14.8241 3.3034 14.0427C4.0848 13.2613 5.14461 12.8223 6.24967 12.8223H14.583L18.7497 6.57227H31.2497L35.4163 12.8223H43.7497C44.8547 12.8223 45.9145 13.2613 46.696 14.0427C47.4774 14.8241 47.9163 15.8839 47.9163 16.9889V39.9056Z" stroke="white" stroke-opacity="0.6" stroke-width="2" stroke-linecap="round" stroke-linejoin="round"/>
<path d="M25.0003 35.7389C29.6027 35.7389 33.3337 32.008 33.3337 27.4056C33.3337 22.8032 29.6027 19.0723 25.0003 19.0723C20.398 19.0723 16.667 22.8032 16.667 27.4056C16.667 32.008 20.398 35.7389 25.0003 35.7389Z" stroke="white" stroke-opacity="0.6" stroke-width="2" stroke-linecap="round" stroke-linejoin="round"/>
</svg>
