<svg width="31" height="30" viewBox="0 0 31 30" fill="none" xmlns="http://www.w3.org/2000/svg">
<path d="M24.5957 3.75H7.02906C5.64308 3.75 4.51953 4.86929 4.51953 6.25V23.75C4.51953 25.1307 5.64308 26.25 7.02906 26.25H24.5957C25.9817 26.25 27.1053 25.1307 27.1053 23.75V6.25C27.1053 4.86929 25.9817 3.75 24.5957 3.75Z" stroke="black" stroke-opacity="0.6" stroke-width="2" stroke-linecap="round" stroke-linejoin="round"/>
<path d="M11.4212 12.5C12.4607 12.5 13.3033 11.6605 13.3033 10.625C13.3033 9.58947 12.4607 8.75 11.4212 8.75C10.3817 8.75 9.53906 9.58947 9.53906 10.625C9.53906 11.6605 10.3817 12.5 11.4212 12.5Z" stroke="black" stroke-opacity="0.6" stroke-width="2" stroke-linecap="round" stroke-linejoin="round"/>
<path d="M27.1055 18.75L20.8317 12.5L7.0293 26.25" stroke="#646464" stroke-width="2" stroke-linecap="round" stroke-linejoin="round"/>
</svg>
