<svg width="32" height="29" viewBox="0 0 32 29" fill="none" xmlns="http://www.w3.org/2000/svg">
<path d="M28.5233 3.85324C27.7997 3.12933 26.9406 2.55508 25.9951 2.16328C25.0495 1.77148 24.036 1.56982 23.0125 1.56982C21.9889 1.56982 20.9754 1.77148 20.0299 2.16328C19.0843 2.55508 18.2252 3.12933 17.5016 3.85324L16 5.35491L14.4983 3.85324C13.0367 2.39168 11.0544 1.57058 8.98747 1.57058C6.9205 1.57058 4.9382 2.39168 3.47663 3.85324C2.01507 5.31481 1.19397 7.29711 1.19397 9.36408C1.19397 11.431 2.01507 13.4133 3.47663 14.8749L4.9783 16.3766L16 27.3982L27.0216 16.3766L28.5233 14.8749C29.2472 14.1513 29.8215 13.2922 30.2133 12.3467C30.6051 11.4011 30.8067 10.3876 30.8067 9.36408C30.8067 8.34055 30.6051 7.32706 30.2133 6.38149C29.8215 5.43592 29.2472 4.57681 28.5233 3.85324V3.85324Z" stroke="black" stroke-opacity="0.6" stroke-width="2.2" stroke-linecap="round" stroke-linejoin="round"/>
</svg>
