<svg width="30" height="31" viewBox="0 0 30 31" fill="none" xmlns="http://www.w3.org/2000/svg">
<path d="M15 16.5723C15.6904 16.5723 16.25 16.0126 16.25 15.3223C16.25 14.6319 15.6904 14.0723 15 14.0723C14.3096 14.0723 13.75 14.6319 13.75 15.3223C13.75 16.0126 14.3096 16.5723 15 16.5723Z" stroke="white" stroke-width="2" stroke-linecap="round" stroke-linejoin="round"/>
<path d="M15 7.82227C15.6904 7.82227 16.25 7.26262 16.25 6.57227C16.25 5.88191 15.6904 5.32227 15 5.32227C14.3096 5.32227 13.75 5.88191 13.75 6.57227C13.75 7.26262 14.3096 7.82227 15 7.82227Z" stroke="white" stroke-width="2" stroke-linecap="round" stroke-linejoin="round"/>
<path d="M15 25.3223C15.6904 25.3223 16.25 24.7626 16.25 24.0723C16.25 23.3819 15.6904 22.8223 15 22.8223C14.3096 22.8223 13.75 23.3819 13.75 24.0723C13.75 24.7626 14.3096 25.3223 15 25.3223Z" stroke="white" stroke-width="2" stroke-linecap="round" stroke-linejoin="round"/>
</svg>
