<svg
	width="41"
	height="41"
	viewBox="0 0 41 41"
	fill="none"
	xmlns="http://www.w3.org/2000/svg"
>
	<path
		d="M30.6388 13.6558C30.6388 11.0036 29.5852 8.46006 27.7099 6.58469C25.8345 4.70933 23.291 3.65576 20.6388 3.65576C17.9866 3.65576 15.4431 4.70933 13.5677 6.58469C11.6924 8.46006 10.6388 11.0036 10.6388 13.6558C10.6388 25.3224 5.63879 28.6558 5.63879 28.6558H35.6388C35.6388 28.6558 30.6388 25.3224 30.6388 13.6558Z"
		stroke="black"
		stroke-opacity="0.5"
		stroke-width="4"
		stroke-linecap="round"
		stroke-linejoin="round"
	/>
	<path
		d="M23.5221 35.3223C23.2291 35.8274 22.8085 36.2467 22.3025 36.5381C21.7965 36.8296 21.2228 36.983 20.6388 36.983C20.0548 36.983 19.4811 36.8296 18.9751 36.5381C18.4691 36.2467 18.0485 35.8274 17.7555 35.3223"
		stroke="black"
		stroke-opacity="0.5"
		stroke-width="4"
		stroke-linecap="round"
		stroke-linejoin="round"
	/>
</svg>
