<svg width="28" height="28" viewBox="0 0 28 28" fill="none" xmlns="http://www.w3.org/2000/svg">
<path d="M14 7.52051V9.83645M14 21.1245V19.424V18.8048" stroke="#FB5734" stroke-width="2" stroke-linecap="round" stroke-linejoin="round"/>
<path d="M17.0911 9.99365H12.4533C11.8793 9.99365 11.3288 10.2217 10.923 10.6276C10.5171 11.0334 10.2891 11.5839 10.2891 12.1579C10.2891 12.7319 10.5171 13.2824 10.923 13.6883C11.3288 14.0942 11.8793 14.3222 12.4533 14.3222H15.5452C16.1192 14.3222 16.6697 14.5502 17.0755 14.9561C17.4814 15.362 17.7094 15.9125 17.7094 16.4865C17.7094 17.0605 17.4814 17.611 17.0755 18.0169C16.6697 18.4227 16.1192 18.6508 15.5452 18.6508H10.2891" stroke="#FB5734" stroke-width="2" stroke-linecap="round" stroke-linejoin="round"/>
<circle cx="14" cy="14.3223" r="12.5" stroke="#FB5734" stroke-width="2"/>
</svg>
