<svg width="31" height="31" viewBox="0 0 31 31" fill="none" xmlns="http://www.w3.org/2000/svg">
<path d="M24.0742 4.125H6.57422C5.19351 4.125 4.07422 5.24429 4.07422 6.625V24.125C4.07422 25.5057 5.19351 26.625 6.57422 26.625H24.0742C25.4549 26.625 26.5742 25.5057 26.5742 24.125V6.625C26.5742 5.24429 25.4549 4.125 24.0742 4.125Z" stroke="black" stroke-width="2" stroke-linecap="round" stroke-linejoin="round"/>
<path d="M10.9492 12.875C11.9848 12.875 12.8242 12.0355 12.8242 11C12.8242 9.96447 11.9848 9.125 10.9492 9.125C9.91368 9.125 9.07422 9.96447 9.07422 11C9.07422 12.0355 9.91368 12.875 10.9492 12.875Z" stroke="black" stroke-width="2" stroke-linecap="round" stroke-linejoin="round"/>
<path d="M26.5742 19.125L20.3242 12.875L6.57422 26.625" stroke="black" stroke-width="2" stroke-linecap="round" stroke-linejoin="round"/>
</svg>
