<svg width="40" height="41" viewBox="0 0 40 41" fill="none" xmlns="http://www.w3.org/2000/svg">
<path d="M35.7332 18.7395L20.4165 34.0561C18.5401 35.9325 15.9951 36.9867 13.3415 36.9867C10.6879 36.9867 8.1429 35.9325 6.2665 34.0561C4.39009 32.1797 3.33594 29.6348 3.33594 26.9811C3.33594 24.3275 4.39009 21.7825 6.2665 19.9061L21.5832 4.58945C22.8341 3.33851 24.5307 2.63574 26.2998 2.63574C28.0689 2.63574 29.7656 3.33851 31.0165 4.58945C32.2674 5.84039 32.9702 7.53702 32.9702 9.30612C32.9702 11.0752 32.2674 12.7718 31.0165 14.0228L15.6832 29.3395C15.0577 29.9649 14.2094 30.3163 13.3248 30.3163C12.4403 30.3163 11.592 29.9649 10.9665 29.3395C10.341 28.714 9.98964 27.8657 9.98964 26.9811C9.98964 26.0966 10.341 25.2483 10.9665 24.6228L25.1165 10.4894" stroke="white" stroke-width="2" stroke-linecap="round" stroke-linejoin="round"/>
</svg>
